<?xml version="1.0" encoding="utf-8"?>
<!-- Generator: Adobe Illustrator 19.2.0, SVG Export Plug-In . SVG Version: 6.00 Build 0)  -->
<svg version="1.1" id="Layer_1" xmlns="http://www.w3.org/2000/svg" xmlns:xlink="http://www.w3.org/1999/xlink" x="0px" y="0px"
	 viewBox="0 0 420 325" style="enable-background:new 0 0 420 325;" xml:space="preserve">
<style type="text/css">
	.st0{fill:#FFFFFF;}
</style>
<g id="WEB_DESIGN">
</g>
<g id="APP_DESIGN">
</g>
<circle class="st0" cx="210" cy="210" r="2"/>
<circle class="st0" cx="168" cy="225" r="2"/>
<circle class="st0" cx="252" cy="223" r="2"/>
<circle class="st0" cx="126" cy="233" r="2"/>
<path class="st0" d="M81,267h258V163H81V267z M294,182c3.3,0,6,2.7,6,6s-2.7,6-6,6s-6-2.7-6-6S290.7,182,294,182z M286.7,191.5
	l2.6,3.1l-30,25l-2.6-3.1L286.7,191.5z M252,217c3.3,0,6,2.7,6,6s-2.7,6-6,6s-6-2.7-6-6S248.7,217,252,217z M217.7,209.1l27,10
	l-1.4,3.8l-27-10L217.7,209.1z M210,204c3.3,0,6,2.7,6,6s-2.7,6-6,6s-6-2.7-6-6S206.7,204,210,204z M202.4,211.1l1.2,3.8l-28,9
	l-1.2-3.8L202.4,211.1z M168,219c3.3,0,6,2.7,6,6s-2.7,6-6,6s-6-2.7-6-6S164.7,219,168,219z M159.7,225l0.6,4l-26,4l-0.6-4
	L159.7,225z M126,227c3.3,0,6,2.7,6,6s-2.7,6-6,6s-6-2.7-6-6S122.7,227,126,227z"/>
<circle class="st0" cx="294" cy="188" r="2"/>
<rect x="274" y="143" class="st0" width="56" height="6"/>
<path class="st0" d="M81,130h258v-11H81V130z M105,122c1.1,0,2,0.9,2,2s-0.9,2-2,2s-2-0.9-2-2S103.9,122,105,122z M97,122
	c1.1,0,2,0.9,2,2s-0.9,2-2,2s-2-0.9-2-2S95.9,122,97,122z M89,122c1.1,0,2,0.9,2,2s-0.9,2-2,2s-2-0.9-2-2S87.9,122,89,122z"/>
<path class="st0" d="M347.2,102H72.8c-1.5,0-2.8,1.2-2.8,2.7V267h7V115h266v152h7V104.7C350,103.2,348.7,102,347.2,102z"/>
<path class="st0" d="M81,159h258v-25H81V159z M270,139h64v14h-64V139z M96,136.5c5.5,0,10,4.5,10,10s-4.5,10-10,10s-10-4.5-10-10
	S90.5,136.5,96,136.5z"/>
<path class="st0" d="M96,152.5c3.3,0,6-2.7,6-6s-2.7-6-6-6s-6,2.7-6,6S92.7,152.5,96,152.5z"/>
<g id="WORDPRESS">
</g>
<g>
	<path class="st0" d="M388,281c2.2,0,4-1.8,4-4v-6H28v6c0,2.2,1.8,4,4,4h170v4H32c-4.4,0-8-3.6-8-8v-10h42V104.7
		c0-3.6,3.1-6.7,6.8-6.7H208V0H0v325h208v-40v-4H388z"/>
	<path class="st0" d="M212,0v98h135.2c3.7,0,6.8,3,6.8,6.7V267h42v10c0,4.4-3.6,8-8,8H212v40h208V0H212z"/>
</g>
</svg>
