<svg xmlns="http://www.w3.org/2000/svg" xmlns:xlink="http://www.w3.org/1999/xlink" viewBox="0 0 359.49 361.71"><defs><style>.a{opacity:0.75;}.b{fill:#4963ae;}.c,.d,.e{fill:none;stroke:#fff;}.c,.d{stroke-miterlimit:10;}.d,.e{stroke-width:2px;}.e{stroke-linejoin:bevel;}</style></defs><title>intro</title><path class="b" d="M344.56,478.67a15.37,15.37,0,0,1-12-6.93l-40.47-70.09a15.37,15.37,0,0,1,0-13.86l40.47-70.09a15.37,15.37,0,0,1,12-6.93H425.5a15.37,15.37,0,0,1,12,6.93L478,387.79a15.37,15.37,0,0,1,0,13.86L437.5,471.74a15.37,15.37,0,0,1-12,6.93H344.56Z" transform="translate(-284.92 -124.52)"/><path class="c" d="M344.56,478.67a15.37,15.37,0,0,1-12-6.93l-40.47-70.09a15.37,15.37,0,0,1,0-13.86l40.47-70.09a15.37,15.37,0,0,1,12-6.93H425.5a15.37,15.37,0,0,1,12,6.93L478,387.79a15.37,15.37,0,0,1,0,13.86L437.5,471.74a15.37,15.37,0,0,1-12,6.93H344.56Z" transform="translate(-284.92 -124.52)"/><path class="b" d="M501.72,389.24a15.37,15.37,0,0,1-12-6.93l-40.47-70.09a15.37,15.37,0,0,1,0-13.86l40.47-70.09a15.37,15.37,0,0,1,12-6.93h80.94a15.37,15.37,0,0,1,12,6.93l40.47,70.09a15.37,15.37,0,0,1,0,13.86l-40.47,70.09a15.37,15.37,0,0,1-12,6.93H501.72Z" transform="translate(-284.92 -124.52)"/><path class="c" d="M501.72,389.24a15.37,15.37,0,0,1-12-6.93l-40.47-70.09a15.37,15.37,0,0,1,0-13.86l40.47-70.09a15.37,15.37,0,0,1,12-6.93h80.94a15.37,15.37,0,0,1,12,6.93l40.47,70.09a15.37,15.37,0,0,1,0,13.86l-40.47,70.09a15.37,15.37,0,0,1-12,6.93H501.72Z" transform="translate(-284.92 -124.52)"/><path class="b" d="M344.54,297.92a15.37,15.37,0,0,1-12-6.93L292.07,220.9a15.37,15.37,0,0,1,0-13.86l40.47-70.09a15.37,15.37,0,0,1,12-6.93h80.94a15.37,15.37,0,0,1,12,6.93L477.95,207a15.37,15.37,0,0,1,0,13.86L437.48,291a15.37,15.37,0,0,1-12,6.93H344.54Z" transform="translate(-284.92 -124.52)"/><path class="c" d="M344.54,297.92a15.37,15.37,0,0,1-12-6.93L292.07,220.9a15.37,15.37,0,0,1,0-13.86l40.47-70.09a15.37,15.37,0,0,1,12-6.93h80.94a15.37,15.37,0,0,1,12,6.93L477.95,207a15.37,15.37,0,0,1,0,13.86L437.48,291a15.37,15.37,0,0,1-12,6.93H344.54Z" transform="translate(-284.92 -124.52)"/><line class="d" x1="81.1" y1="245.2" x2="131.1" y2="295.2"/><line class="d" x1="69.1" y1="257.2" x2="119.27" y2="307.36"/><polyline class="e" points="131.1 256.2 131.1 245.2 120.1 245.2"/><polyline class="e" points="69.1 296.2 69.1 307.2 80.1 307.2"/><line class="e" x1="69.1" y1="307.2" x2="94.1" y2="282.2"/><line class="e" x1="106.1" y1="270.2" x2="131.1" y2="245.2"/><polyline class="e" points="114.06 106.45 100.06 120.45 86.09 106.48"/><polyline class="e" points="86.09 72.48 100.12 58.45 114.12 72.45"/><circle class="e" cx="100.06" cy="89.45" r="5"/><polyline class="e" points="117.09 75.48 131.09 89.48 117.09 103.48"/><polyline class="e" points="83.12 103.45 69.09 89.42 83.06 75.45"/><polyline class="e" points="248 149.77 265 180.77 248 211.77"/><polyline class="e" points="226.25 149.77 243.25 180.77 226.25 211.77"/><polyline class="e" points="271.28 149.77 288.28 180.77 271.28 211.77"/></svg>