<svg id="Layer_1" data-name="Layer 1" xmlns="http://www.w3.org/2000/svg" viewBox="0 0 276.59 273.22"><defs><style>.cls-1{fill:none;stroke:#759C9A;stroke-miterlimit:10;}.cls-2{fill:#759C9A;}.cls-3{font-size:10px;fill:#121212;font-family: "Helvetica Neue", Helvetica, Arial, sans-serif;}</style></defs><title>intro</title><polygon class="cls-1" points="39.88 272.72 0.58 204.65 39.88 136.58 118.48 136.58 157.78 204.65 118.48 272.72 39.88 272.72"/><polygon class="cls-1" points="40.73 136.64 1.43 68.57 40.73 0.5 119.33 0.5 158.63 68.57 119.33 136.64 40.73 136.64"/><polygon class="cls-1" points="158.11 205.65 118.81 137.58 158.11 69.51 236.71 69.51 276.01 137.58 236.71 205.65 158.11 205.65"/><path class="cls-2" d="M288.57,294.87l-9.29,11.23a1.45,1.45,0,0,0-.18,1.7,1.23,1.23,0,0,0,1.57.51l4.47-1.38,1,15.83a4.4,4.4,0,0,0-.49.46l-15.81-1,1.38-4.47a1.24,1.24,0,0,0-.51-1.57,1.43,1.43,0,0,0-1.73.2l-11.2,9.27a0.72,0.72,0,0,0,0,1.1L269,336.1a1.4,1.4,0,0,0,1.7.18,1.24,1.24,0,0,0,.51-1.57l-1.38-4.47,15.82-.94a4.25,4.25,0,0,0,.47.44l-1,15.83-4.47-1.38a1.23,1.23,0,0,0-1.57.51,1.45,1.45,0,0,0,.2,1.73l9.27,11.2a0.72,0.72,0,0,0,1.1,0L299,346.41a1.71,1.71,0,0,0,.38-1,1.21,1.21,0,0,0-.2-0.68,1.23,1.23,0,0,0-1.57-.51l-4.47,1.38-1-16.27,0,0,17,1-1.38,4.47a1.24,1.24,0,0,0,.51,1.57,1.42,1.42,0,0,0,1.73-.2l11.2-9.27a0.72,0.72,0,0,0,0-1.1L310,316.41a1.41,1.41,0,0,0-1.7-.18,1.24,1.24,0,0,0-.51,1.57l1.38,4.47-17,1-0.05-.06,1-16.27,4.47,1.38a1.23,1.23,0,0,0,1.57-.51,1.21,1.21,0,0,0,.2-0.68,1.74,1.74,0,0,0-.4-1l-9.27-11.2a0.72,0.72,0,0,0-1.11,0h0Zm0.32,28a3.36,3.36,0,0,1,1.81.53l0,0a3.43,3.43,0,0,1,1.17,1.3l0,0a3.36,3.36,0,0,1,.37,1.5,3.32,3.32,0,0,1-.37,1.5l0,0.06a3.42,3.42,0,0,1-1.17,1.29h0a3.36,3.36,0,0,1-1.81.53,3.41,3.41,0,0,1-1.33-.27c-0.11,0-.21-0.11-0.32-0.17a3.4,3.4,0,0,1-1.05-.91,3.45,3.45,0,0,1-.28-0.44,3.26,3.26,0,0,1,0-3.16,3.52,3.52,0,0,1,.29-0.47,3.48,3.48,0,0,1,1-.89,2.94,2.94,0,0,1,.36-0.19,3.41,3.41,0,0,1,1.33-.27h0Zm-20.08,6a0.72,0.72,0,0,0-.55.31,0.71,0.71,0,0,0-.1.62l1.56,5.07-10.4-8.61,10.4-8.61-1.56,5.08a0.72,0.72,0,0,0,.64.93l15.93,1a4.43,4.43,0,0,0,0,3.3l-15.94.95h0Zm22.92,17.71a0.72,0.72,0,0,0,.31.55,0.71,0.71,0,0,0,.62.1l5.07-1.56-8.61,10.4-8.61-10.4,5.08,1.56a0.72,0.72,0,0,0,.93-0.64l1-16.08a4.41,4.41,0,0,0,3.27-.19l1,16.27h0Zm18.43-22.92a0.72,0.72,0,0,0,.55-0.31,0.71,0.71,0,0,0,.1-0.62l-1.56-5.07,10.4,8.61-10.4,8.61,1.56-5.08a0.71,0.71,0,0,0-.1-0.62,0.72,0.72,0,0,0-.55-0.31l-17.11-1a4.41,4.41,0,0,0,0-3.24l17.11-1h0Zm-12.43-16.8-5.08-1.56a0.72,0.72,0,0,0-.93.64l-1,16.27a4.41,4.41,0,0,0-3.27-.19l-1-16.08a0.72,0.72,0,0,0-.93-0.64l-5.07,1.56,8.61-10.4,8.61,10.4h0Z" transform="translate(-210.3 -121.6)"/><path class="cls-2" d="M291.94,154.86c-3.17,0-5.38,7-6.55,16.18-1.85-1.43-3.64-2.72-5.31-3.81-5.56-3.58-9.18-4.59-10.77-3a2.75,2.75,0,0,0-.73,2c0,2.85,2.85,8,7.53,14.05-9.17,1.16-16.18,3.38-16.18,6.55s7,5.38,16.18,6.54c-4.69,6-7.54,11.2-7.54,14.06a2.76,2.76,0,0,0,.73,2c1.59,1.59,5.21.58,10.77-3,1.68-1.08,3.47-2.37,5.31-3.81,1.16,9.18,3.38,16.18,6.55,16.18s5.38-7,6.55-16.18c1.85,1.43,3.64,2.72,5.31,3.81,5.56,3.58,9.18,4.59,10.77,3a2.75,2.75,0,0,0,.73-2c0-2.85-2.85-8-7.54-14.06,9.17-1.16,16.18-3.38,16.18-6.54s-7-5.38-16.18-6.55c4.69-6,7.54-11.2,7.54-14.05a2.75,2.75,0,0,0-.73-2c-1.59-1.59-5.21-.58-10.77,3-1.68,1.08-3.46,2.37-5.31,3.81-1.16-9.17-3.38-16.18-6.55-16.18h0Zm-21.88,11.4a1.35,1.35,0,0,1,.3-1c0.72-.72,3.48-0.31,8.92,3.2,1.86,1.2,3.85,2.64,5.91,4.28-0.24,2.19-.42,4.48-0.54,6.82-2.34.12-4.63,0.31-6.83,0.55-5.11-6.46-7.76-11.49-7.76-13.85h0Zm21.88,14.59,2.47,0c0.59,0.57,1.18,1.15,1.78,1.74s1.17,1.18,1.74,1.77c0,0.81,0,1.64,0,2.48s0,1.66,0,2.48c-0.57.59-1.14,1.17-1.74,1.77s-1.18,1.16-1.77,1.73l-2.48,0-2.48,0c-0.59-.57-1.18-1.15-1.77-1.73s-1.17-1.18-1.74-1.77c0-.81,0-1.64,0-2.48s0-1.66,0-2.48c0.57-.59,1.14-1.17,1.74-1.77s1.18-1.17,1.78-1.74Zm-5.29.72-0.64.65c0-.42,0-0.84,0-1.25l1.25,0Zm-2.16,2.21q-1,1-1.87,2-2-2.23-3.71-4.3,2.66-.27,5.67-0.43C284.54,182,284.51,182.86,284.49,183.78Zm0,2.18c0,0.3,0,.61,0,0.91s0,0.6,0,.91l-0.86-.91Zm0,4c0,0.91,0,1.82.09,2.73-2-.1-3.89-0.25-5.66-0.43,1.13-1.38,2.37-2.81,3.71-4.3q0.91,1,1.87,2h0ZM286,191.5l0.64,0.65,0.65,0.64-1.25,0c0-.41,0-0.83,0-1.25h0Zm2.84,2.81q1,1,2,1.87-2.18,2-4.3,3.7-0.27-2.65-.42-5.65l2.73,0.09h0Zm2.19,0h1.81l-0.9.85Zm4,0,2.73-.09c-0.1,2-.25,3.88-0.42,5.65q-2.11-1.73-4.29-3.7,1-.92,2-1.87h0Zm1.55-1.51,0.65-.64,0.64-.65c0,0.42,0,.83,0,1.25l-1.25,0h0Zm2.81-2.85q1-1,1.87-2,2,2.23,3.71,4.3c-1.77.18-3.66,0.32-5.66,0.43,0-.91.07-1.82,0.09-2.73h0Zm0-2.18c0-.3,0-0.6,0-0.91s0-.6,0-0.91l0.85,0.91Zm0-4q0-1.37-.09-2.73,3,0.16,5.67.43-1.69,2.07-3.71,4.3Q300.34,184.78,299.39,183.78Zm-1.52-1.55-0.64-.65-0.66-.64,1.25,0C297.84,181.39,297.86,181.8,297.87,182.22ZM295,179.42c-0.66-.64-1.33-1.26-2-1.87q2.18-2,4.29-3.7c0.18,1.77.32,3.65,0.42,5.65l-2.73-.09h0Zm-2.19,0H291l0.9-.84Zm-4,0-2.73.09c0.1-2,.25-3.88.42-5.65q2.11,1.73,4.3,3.7Q289.85,178.46,288.85,179.42Zm-27.44,7.45c0-1.77,5.76-4,15.77-5.2,1.36,1.69,2.84,3.43,4.44,5.2-1.6,1.77-3.09,3.51-4.44,5.2C267.18,190.89,261.41,188.63,261.41,186.87Zm17.87,18.38c-5.44,3.51-8.21,3.92-8.92,3.2a1.37,1.37,0,0,1-.3-1c0-2.36,2.65-7.39,7.77-13.85,2.19,0.24,4.49.42,6.83,0.55,0.12,2.33.31,4.63,0.54,6.82C283.13,202.61,281.14,204.05,279.28,205.25Zm12.66,12.14c-1.76,0-4-5.76-5.2-15.77,1.7-1.37,3.44-2.86,5.2-4.45,1.76,1.59,3.5,3.08,5.2,4.45C296,211.63,293.7,217.39,291.94,217.39Zm21.88-9.92a1.38,1.38,0,0,1-.3,1c-0.72.72-3.49,0.31-8.92-3.2-1.86-1.2-3.85-2.64-5.91-4.27,0.24-2.19.42-4.49,0.55-6.82,2.34-.12,4.63-0.31,6.83-0.55C311.17,200.07,313.82,205.1,313.82,207.46Zm8.64-20.6c0,1.76-5.76,4-15.77,5.2-1.36-1.69-2.84-3.43-4.44-5.2,1.6-1.77,3.09-3.52,4.44-5.2C316.7,182.84,322.46,185.1,322.46,186.87ZM304.6,168.48c5.44-3.51,8.21-3.92,8.92-3.2a1.36,1.36,0,0,1,.3,1c0,2.36-2.65,7.39-7.76,13.85-2.19-.24-4.49-0.42-6.83-0.55-0.12-2.33-.31-4.63-0.54-6.82,2.07-1.63,4.06-3.08,5.91-4.27h0Zm-7.46,3.63c-1.7,1.37-3.44,2.86-5.2,4.44-1.76-1.59-3.5-3.08-5.2-4.45,1.18-10,3.44-15.77,5.2-15.77s4,5.76,5.2,15.77h0Zm-8.35,14.76a3.15,3.15,0,1,0,3.15-3.15A3.15,3.15,0,0,0,288.79,186.87Zm4.81,0a1.67,1.67,0,1,1-1.67-1.67A1.67,1.67,0,0,1,293.61,186.87Z" transform="translate(-210.3 -121.6)"/><path class="cls-2" d="M392.31,227.19a7.22,7.22,0,0,0-4-1.81,1.78,1.78,0,0,0-1.76,1.07,0.65,0.65,0,0,0,0,.44l2.45,6.7-0.41,3.2-3.28,1.53-2.48-2.16c-0.26-.7-1.32-3.58-1.86-5.11-0.45-1.28-.93-1.89-1.56-2a1,1,0,0,0-.89.31c-5.25,4.57-1,12.73-.75,13.21a21.93,21.93,0,0,0,1.13,2l-0.4.19a2,2,0,0,0-.75,2.82,1.84,1.84,0,0,0,2.58,1.05l1.28-.6c0.19,0.19.39,0.37,0.59,0.54,1.12,0.95,1.53,1.54,1.43,4.08l-1,28.58a6.34,6.34,0,0,0,1.31,4.42,4.6,4.6,0,0,0,3.57,1.42,4.35,4.35,0,0,0,3.38-1.36,6.37,6.37,0,0,0,1.27-4.43l-0.92-28.57c0-.32,0-0.63,0-0.93-0.06-2-.11-3.37,3.12-5.92,4.23-3.34,3.26-9.24,3.22-9.48a15.49,15.49,0,0,0-5.32-9.22h0Zm-13.59,14.23c-0.82-1.81-3.05-7.64.6-11a4,4,0,0,1,.49,1c0.62,1.75,1.93,5.28,1.93,5.28a0.63,0.63,0,0,0,.18.26l2.17,1.89-5.37,2.5h0Zm1.26,6.36a1,1,0,0,1-.42.11,1.05,1.05,0,0,1-.85-0.69,1.1,1.1,0,0,1,.28-1.52l0.52-.25a18.94,18.94,0,0,0,1.46,1.89l-1,.47h0Zm13.63-2.91c-3.74,3-3.68,4.82-3.61,7,0,0.28,0,.58,0,0.91l0.93,28.64a5.22,5.22,0,0,1-.94,3.48,3,3,0,0,1-2.41.93,3.37,3.37,0,0,1-2.6-1,5.1,5.1,0,0,1-1-3.47l1-28.62c0.11-2.67-.3-3.77-1.89-5.12a18.47,18.47,0,0,1-3.81-5l10.23-4.77a0.66,0.66,0,0,0,.37-0.51l0.47-3.71a0.66,0.66,0,0,0,0-.31l-2.39-6.51a0.76,0.76,0,0,1,.41-0.09c0.42,0,1.38.2,3.16,1.55a14.43,14.43,0,0,1,4.83,8.4c0,0.05.87,5.39-2.74,8.25h0Zm-2.69-5.16a0.49,0.49,0,0,0-.78.58l1.9,2.54a0.49,0.49,0,0,0,.78-0.58Zm-1.76.85a0.49,0.49,0,0,0-.78.58l1.9,2.54a0.5,0.5,0,0,0,.39.19,0.49,0.49,0,0,0,.39-0.78Zm-0.64,4a0.49,0.49,0,1,0,.78-0.58l-1.9-2.54a0.49,0.49,0,0,0-.78.58l1.9,2.54h0Zm-1.36,1a0.49,0.49,0,0,0,.39-0.78l-1.9-2.54a0.49,0.49,0,1,0-.78.58l1.9,2.54A0.49,0.49,0,0,0,387.16,245.58Zm0.4,34.16a2.37,2.37,0,1,0,2,1.09,2.37,2.37,0,0,0-2-1.09h0Zm0.75,3.54a1.42,1.42,0,0,1-1.93-.43,1.4,1.4,0,1,1,1.93.43h0Zm26.07-15.63a0.65,0.65,0,0,0-.19-0.46,4.06,4.06,0,0,1-1.46-2.9,2.73,2.73,0,0,1,.85-1.81,0.65,0.65,0,0,0,.23-0.5v-4.17a0.65,0.65,0,0,0-.65-0.65h-3.42V239.33l1.18-3.28a0.63,0.63,0,0,0,0-.33l-1.52-8.64a0.65,0.65,0,0,0-.64-0.54h-3.1a0.65,0.65,0,0,0-.64.54l-1.52,8.64a0.63,0.63,0,0,0,0,.33l1.18,3.28v17.84h-3.42a0.65,0.65,0,0,0-.65.65V262a0.66,0.66,0,0,0,.23.5,2.71,2.71,0,0,1,.84,1.79,4,4,0,0,1-1.46,2.91,0.66,0.66,0,0,0-.19.46v16.8a2.36,2.36,0,0,0,.71,1.68c1.1,1.18,3.26,1.78,6.42,1.78s5.32-.6,6.42-1.78a2.37,2.37,0,0,0,.72-1.63V267.65h0Zm-8.14-39.81h2l1.39,7.93L408.48,239a0.63,0.63,0,0,0,0,.22v18H406v-18a0.65,0.65,0,0,0,0-.22l-1.16-3.22,1.39-7.93h0Zm-1.61,58.59a8.3,8.3,0,0,1-1-.22V271.87a5.19,5.19,0,0,1,.1-1.41c0-.13.09-0.24,0.46-0.24s0.46,0.22.46,1.68v14.54h0Zm6.32-.24a8.69,8.69,0,0,1-1,.23V271.89c0-1.46.11-1.68,0.46-1.68a0.38,0.38,0,0,1,.45.3,5.09,5.09,0,0,1,.11,1.38v14.3h0Zm2.14-1.67a1.78,1.78,0,0,1-1.16,1.3V271.87a5.57,5.57,0,0,0-.15-1.67,1.34,1.34,0,0,0-1.38-1c-1.44,0-1.44,1.47-1.44,2.65v14.65c-0.51,0-1.07.07-1.71,0.07s-1.15,0-1.64-.07V271.9c0-1.18,0-2.65-1.44-2.65a1.31,1.31,0,0,0-1.38.89,5.53,5.53,0,0,0-.16,1.76v14a1.81,1.81,0,0,1-1.24-1.35V267.92a5.1,5.1,0,0,0,1.64-3.7,4,4,0,0,0-1.07-2.51v-3.24H412.5v3.24a4,4,0,0,0-1.07,2.51,5.1,5.1,0,0,0,1.64,3.7v16.61h0Zm26.25-57.65a0.66,0.66,0,0,0-.58-0.34l-2.61,0a0.61,0.61,0,0,0-.23,0,7,7,0,0,1-2.35.44,3.46,3.46,0,0,1-2.55-.94,0.65,0.65,0,0,0-.46-0.19h-5.12a11.67,11.67,0,0,0-10,9,2,2,0,0,0,.53,2,0.87,0.87,0,0,0,.52.16,2.45,2.45,0,0,0,1.59-1,19.85,19.85,0,0,1,3.29-3.86,3,3,0,0,1,1.45-.63,0.5,0.5,0,0,1,.51.41,32.91,32.91,0,0,1,1.12,4.89l0,0.26a0.65,0.65,0,0,0,.62.53v17.89a2.09,2.09,0,0,0-1.09,1.81L424,285c0,1.4,2.23,2.16,3.38,2.16h1.41c1.17,0,3.45-.76,3.45-2.16l-0.07-27.62a2.08,2.08,0,0,0-1.09-1.81V237.64a0.64,0.64,0,0,0,.51-0.54l0.49-3.86a2.24,2.24,0,0,1,1.52-.58,4.13,4.13,0,0,1,2.22.82,0.64,0.64,0,0,0,.4.14l2.61,0a0.69,0.69,0,0,0,.58-0.33,8.77,8.77,0,0,0,0-6.46h0Zm-10.6,59h-1.41a2.92,2.92,0,0,1-2.08-.85l0.07-27.62a1,1,0,0,1,1.14-.86h3.21a1,1,0,0,1,1.14.86L430.88,285a3.12,3.12,0,0,1-2.15.87h0Zm-2.32-30.63V237.67h3.3v17.54h-3.3Zm8.93-23.44a4.67,4.67,0,0,0-1.82-.4,3.56,3.56,0,0,0-2.59,1.11,0.65,0.65,0,0,0-.18.38l-0.44,3.52h-4.63a29.91,29.91,0,0,0-1.14-4.87,1.79,1.79,0,0,0-1.72-1.22,4.23,4.23,0,0,0-2.24.9,20.61,20.61,0,0,0-3.56,4.13,2,2,0,0,1-.32.31,1.08,1.08,0,0,1,0-.38,10.19,10.19,0,0,1,8.76-8h4.82a4.77,4.77,0,0,0,3.27,1.13,8,8,0,0,0,1.7-.2,15.18,15.18,0,0,1,.16,2.19,11.07,11.07,0,0,1-.08,1.39h0Zm3,0.6-2,0-0.12-.08a10.13,10.13,0,0,0,.15-1.88,16.67,16.67,0,0,0-.19-2.46l0.07,0,2,0a7,7,0,0,1,.32,2.22,7.34,7.34,0,0,1-.32,2.3h0Z" transform="translate(-210.3 -121.6)"/><text class="cls-3" transform="translate(166.06 186.74)">maintainability</text><text class="cls-3" transform="translate(42.45 118.99)">high performance</text><text class="cls-3" transform="translate(57.54 254.35)">scalability</text></svg>