<?xml version="1.0" encoding="UTF-8" standalone="no"?>
<svg width="87px" height="100px" viewBox="0 0 87 100" version="1.1" xmlns="http://www.w3.org/2000/svg" xmlns:xlink="http://www.w3.org/1999/xlink" xmlns:sketch="http://www.bohemiancoding.com/sketch/ns">
    <!-- Generator: Sketch 3.4.4 (17249) - http://www.bohemiancoding.com/sketch -->
    <title>kodeq-logo-corp-name</title>
    <desc>Created with Sketch.</desc>
    <defs></defs>
    <g id="Page-1" stroke="none" stroke-width="1" fill="none" fill-rule="evenodd" sketch:type="MSPage">
        <g id="kodeq-logo-corp-name" sketch:type="MSLayerGroup">
            <g id="Group" sketch:type="MSShapeGroup">
                <g transform="translate(0.193722, 0.038652)" id="Shape" fill="#FFAF2D">
                    <path d="M43.0720578,0.284289 L86.0940808,25.1226189 L86.0940808,74.7998474 L43.0720578,99.6387459 L0.050603442,74.7998474 L0.050603442,25.1226189 L43.0720578,0.284289 L43.0720578,0.284289 Z"></path>
                </g>
                <g id="Fill-7" transform="translate(46.680255, 49.998768) rotate(-0.000000) translate(-46.680255, -49.998768) translate(20.821873, 24.043900)" fill="#000000">
                    <path d="M13.2167208,10.9108864 L13.2167208,4.60530065 C13.2167208,3.58119293 12.3251855,2.74890039 11.2294848,2.74890039 L4.74867958,2.74890039 C3.65278592,2.74890039 2.76125066,2.72477876 2.76125066,2.72477876 L2.76125066,49.1695204 C2.76125066,49.1695204 3.65278592,49.1633453 4.74867958,49.1633453 L11.2294848,49.1633453 C12.3251855,49.1633453 13.2167208,48.3298949 13.2167208,47.3057872 L13.2167208,28.5727402 L13.2167208,27.2491384 C13.2167208,25.9126074 14.0607847,25.079543 15.001914,23.8867769 C18.2739642,19.7399801 32.8490219,3.19910639 32.8490219,3.19910639 C34.3034594,1.55362562 37.4302009,0.095907581 39.7153872,0.095907581 L48.3821906,0.095907581 C51.1254947,0.095907581 52.6922425,2.48877278 50.7696525,4.73748715 L32.3513445,25.9562193 L50.7696525,47.1749515 C52.6916636,49.4228939 51.1253018,51.8163381 48.3821906,51.8163381 L38.8441141,51.8163381 C36.5552613,51.8163381 33.6322993,50.5147352 32.1911769,48.8526587 L21.8808225,36.8246516 C22.2837501,36.428864 24.1204672,35.8410683 25.4324906,37.2362631 L34.3957005,47.1815126 C35.3109714,48.2366889 37.3896766,49.1633453 38.8441141,49.1633453 L48.3821906,49.1633453 C48.5471825,49.1633453 48.6755095,49.1500301 48.7704522,49.1334344 C48.7252966,49.0535436 48.6552474,48.9514609 48.5520068,48.8304668 L31.5300514,29.2699517 C30.7234243,28.3261207 29.6140225,27.0609897 29.6140225,25.9562193 C29.6140225,24.8512559 30.7481248,23.5564071 31.5300514,22.6411361 L48.5520068,3.08081395 C48.6552474,2.95981987 48.7252966,2.858895 48.7704522,2.77900417 C48.6755095,2.76221552 44.6717057,2.74890039 44.5067138,2.74890039 L39.7153872,2.74890039 C38.2574762,2.74890039 36.164684,3.34383614 35.235133,4.39457413 L16.0318109,26.6186956 L16.0540028,47.3057872 C16.0540028,49.7935951 13.8898106,51.8163381 11.2294848,51.8163381 L4.74867958,51.8163381 L0.025858382,51.8163381 L0.025858382,47.3239266 L0.025858382,4.62344011 L0.025858382,0.11385407 L11.2294848,0.095907581 C13.8898106,0.095907581 16.0540028,2.11865057 16.0540028,4.60530065 L16.0540028,12.8512299 C16.0540028,12.8512299 16.0262147,13.4590949 15.8042957,13.4693224 C15.3297751,13.4909354 14.851974,13.3743797 14.3992593,13.2300359 C13.4563932,12.9295769 13.2167208,11.778686 13.2167208,10.9108864" id="Shape"></path>
                </g>
            </g>
        </g>
    </g>
</svg>